<svg width="72" height="21" viewBox="0 0 72 21" fill="none" xmlns="http://www.w3.org/2000/svg">
<path fill-rule="evenodd" clip-rule="evenodd" d="M12 2.5H8V6.5H4H0V10.5V14.5V18.5H4H8V14.5H12H16V10.5V6.5V2.5H12ZM4 14.5H8V10.5H12V6.5H8V10.5H4V14.5Z" fill="white"/>
<path d="M33.088 12.76C33.088 13.448 32.9067 14.056 32.544 14.584C32.1867 15.112 31.672 15.5253 31 15.824C30.328 16.1227 29.52 16.272 28.576 16.272C27.5307 16.272 26.6533 16.12 25.944 15.816C25.24 15.5067 24.656 15.1253 24.192 14.672L25.52 13.2C25.9307 13.5573 26.384 13.8347 26.88 14.032C27.376 14.224 27.92 14.32 28.512 14.32C28.88 14.32 29.2027 14.2667 29.48 14.16C29.7573 14.0533 29.9733 13.8987 30.128 13.696C30.2827 13.4933 30.36 13.248 30.36 12.96C30.36 12.688 30.2987 12.4587 30.176 12.272C30.0533 12.0853 29.8453 11.9173 29.552 11.768C29.264 11.6187 28.8613 11.4667 28.344 11.312C27.48 11.0453 26.784 10.752 26.256 10.432C25.7333 10.112 25.352 9.74133 25.112 9.32C24.8773 8.89867 24.76 8.408 24.76 7.848C24.76 7.17067 24.9467 6.592 25.32 6.112C25.6987 5.632 26.2053 5.26667 26.84 5.016C27.4747 4.76 28.1733 4.632 28.936 4.632C29.7947 4.632 30.552 4.75733 31.208 5.008C31.864 5.25333 32.432 5.60533 32.912 6.064L31.672 7.488C31.2987 7.17333 30.896 6.94133 30.464 6.792C30.032 6.63733 29.592 6.56 29.144 6.56C28.8133 6.56 28.5227 6.60267 28.272 6.688C28.0213 6.768 27.8267 6.888 27.688 7.048C27.5493 7.208 27.48 7.408 27.48 7.648C27.48 7.88267 27.5467 8.08 27.68 8.24C27.8133 8.4 28.0453 8.552 28.376 8.696C28.7067 8.83467 29.1653 8.99733 29.752 9.184C30.4507 9.39733 31.048 9.65333 31.544 9.952C32.0453 10.2453 32.4267 10.616 32.688 11.064C32.9547 11.512 33.088 12.0773 33.088 12.76ZM41.9938 4.912V6.832H39.7058V14.072H41.9938V16H34.7938V14.072H37.0818V6.832H34.7938V4.912H41.9938ZM48.7715 16L45.8515 7.08C45.8888 7.32 45.9288 7.61067 45.9715 7.952C46.0195 8.288 46.0648 8.664 46.1075 9.08C46.1502 9.49067 46.1848 9.928 46.2115 10.392C46.2382 10.856 46.2515 11.3307 46.2515 11.816V16H44.0195V4.912H47.2915L50.1235 13.784C50.0648 13.448 50.0035 13.048 49.9395 12.584C49.8808 12.1147 49.8302 11.592 49.7875 11.016C49.7448 10.44 49.7235 9.82133 49.7235 9.16V4.912H51.9555V16H48.7715ZM59.1813 13.608H55.9333L55.3493 16H52.6052L55.9973 4.912H59.1813L62.5733 16H59.7653L59.1813 13.608ZM56.3493 11.704H58.7493L57.5493 6.8L56.3493 11.704ZM68.471 6.92V16H65.847V6.92H62.735V4.912H71.711L71.439 6.92H68.471Z" fill="white"/>
</svg>
