<svg width="84" height="26" viewBox="0 0 84 26" fill="none" xmlns="http://www.w3.org/2000/svg">
<path d="M8 13H4V17H8V21H0V9H8V13ZM16 17H8V13H12V9H8V5H16V17Z" fill="white"/>
<path d="M29.64 18.35C30.26 18.35 30.7567 18.2433 31.13 18.03C31.51 17.81 31.7 17.5033 31.7 17.11C31.7 16.85 31.6367 16.63 31.51 16.45C31.39 16.27 31.15 16.1033 30.79 15.95C30.43 15.79 29.89 15.6133 29.17 15.42C28.49 15.2467 27.8933 15.0333 27.38 14.78C26.8733 14.52 26.4767 14.1867 26.19 13.78C25.91 13.3733 25.77 12.86 25.77 12.24C25.77 11.62 25.9433 11.0767 26.29 10.61C26.6367 10.1367 27.1367 9.77 27.79 9.51C28.45 9.24333 29.2433 9.11 30.17 9.11C31.0767 9.11 31.87 9.23 32.55 9.47C33.23 9.70333 33.8133 9.99667 34.3 10.35L33.22 11.96C32.7933 11.6867 32.33 11.4667 31.83 11.3C31.3367 11.1267 30.8033 11.04 30.23 11.04C29.61 11.04 29.1567 11.13 28.87 11.31C28.59 11.49 28.45 11.74 28.45 12.06C28.45 12.2867 28.52 12.48 28.66 12.64C28.8067 12.7933 29.0667 12.9433 29.44 13.09C29.82 13.23 30.36 13.4 31.06 13.6C31.7467 13.7867 32.3433 14.0067 32.85 14.26C33.3633 14.5133 33.76 14.85 34.04 15.27C34.32 15.69 34.46 16.24 34.46 16.92C34.46 17.6867 34.2367 18.32 33.79 18.82C33.3433 19.32 32.7533 19.6933 32.02 19.94C31.2933 20.18 30.5033 20.3 29.65 20.3C28.65 20.3 27.7767 20.1567 27.03 19.87C26.2833 19.5833 25.65 19.2133 25.13 18.76L26.5 17.22C26.9133 17.5467 27.3833 17.8167 27.91 18.03C28.4433 18.2433 29.02 18.35 29.64 18.35ZM43.6922 9.41V18.13H46.4822V20H37.9522V18.13H41.0522V11.28H38.0522V9.41H43.6922ZM41.9822 4.07C42.4689 4.07 42.8622 4.22 43.1622 4.52C43.4689 4.82 43.6222 5.19333 43.6222 5.64C43.6222 6.08667 43.4689 6.46333 43.1622 6.77C42.8622 7.07 42.4689 7.22 41.9822 7.22C41.4955 7.22 41.0989 7.07 40.7922 6.77C40.4855 6.46333 40.3322 6.08667 40.3322 5.64C40.3322 5.19333 40.4855 4.82 40.7922 4.52C41.0989 4.22 41.4955 4.07 41.9822 4.07ZM49.5944 20V9.41H51.8944L52.0844 10.72C52.5377 10.1867 53.0477 9.78667 53.6144 9.52C54.181 9.24667 54.791 9.11 55.4444 9.11C56.3977 9.11 57.1244 9.38667 57.6244 9.94C58.1244 10.4867 58.3744 11.2567 58.3744 12.25V20H55.7344V13.28C55.7344 12.7467 55.701 12.32 55.6344 12C55.5677 11.6733 55.441 11.44 55.2544 11.3C55.0677 11.1533 54.7977 11.08 54.4444 11.08C54.1577 11.08 53.881 11.1433 53.6144 11.27C53.3544 11.3967 53.1077 11.5667 52.8744 11.78C52.6477 11.9933 52.4344 12.23 52.2344 12.49V20H49.5944ZM70.0366 17.21C70.0366 17.6167 70.0966 17.9133 70.2166 18.1C70.3366 18.28 70.5299 18.4167 70.7966 18.51L70.2266 20.28C69.6599 20.22 69.1766 20.08 68.7766 19.86C68.3832 19.6333 68.0799 19.2967 67.8666 18.85C67.4666 19.3367 66.9599 19.7 66.3466 19.94C65.7399 20.18 65.1032 20.3 64.4366 20.3C63.3566 20.3 62.4999 19.9933 61.8666 19.38C61.2332 18.7667 60.9166 17.97 60.9166 16.99C60.9166 15.8633 61.3566 14.9967 62.2366 14.39C63.1232 13.7767 64.3766 13.47 65.9966 13.47H67.4766V12.9C67.4766 12.2733 67.2832 11.82 66.8966 11.54C66.5099 11.2533 65.9532 11.11 65.2266 11.11C64.8866 11.11 64.4599 11.1567 63.9466 11.25C63.4399 11.3367 62.9166 11.4733 62.3766 11.66L61.7466 9.85C62.4199 9.59667 63.0966 9.41 63.7766 9.29C64.4632 9.17 65.0866 9.11 65.6466 9.11C67.1332 9.11 68.2366 9.42667 68.9566 10.06C69.6766 10.6867 70.0366 11.5767 70.0366 12.73V17.21ZM65.2966 18.39C65.6966 18.39 66.0999 18.2767 66.5066 18.05C66.9199 17.8233 67.2432 17.5067 67.4766 17.1V15.04H66.4366C65.4566 15.04 64.7466 15.1967 64.3066 15.51C63.8732 15.8233 63.6566 16.2667 63.6566 16.84C63.6566 17.3333 63.7966 17.7167 64.0766 17.99C64.3566 18.2567 64.7632 18.39 65.2966 18.39ZM82.7188 19.41C82.3254 19.67 81.8488 19.8833 81.2888 20.05C80.7288 20.2167 80.1221 20.3 79.4688 20.3C78.1754 20.3 77.2021 19.9667 76.5488 19.3C75.8954 18.6267 75.5688 17.7333 75.5688 16.62V11.28H73.2688V9.41H75.5688V7.08L78.2088 6.76V9.41H81.7088L81.4388 11.28H78.2088V16.61C78.2088 17.1567 78.3421 17.5567 78.6088 17.81C78.8754 18.0633 79.3054 18.19 79.8988 18.19C80.2788 18.19 80.6254 18.1467 80.9388 18.06C81.2588 17.9667 81.5488 17.85 81.8088 17.71L82.7188 19.41Z" fill="white"/>
</svg>
